<?xml version="1.0" encoding="UTF-8" standalone="no"?>
<!-- Created with Inkscape (http://www.inkscape.org/) -->

<svg
   version="1.1"
   id="svg2"
   xml:space="preserve"
   width="1360.52"
   height="281.41333"
   viewBox="0 0 1360.52 281.41333"
   sodipodi:docname="rrf_combilogo_bleke_achtergrond_gefinancierd_eu.eps"
   xmlns:inkscape="http://www.inkscape.org/namespaces/inkscape"
   xmlns:sodipodi="http://sodipodi.sourceforge.net/DTD/sodipodi-0.dtd"
   xmlns="http://www.w3.org/2000/svg"
   xmlns:svg="http://www.w3.org/2000/svg"><defs
     id="defs6" /><sodipodi:namedview
     id="namedview4"
     pagecolor="#ffffff"
     bordercolor="#666666"
     borderopacity="1.0"
     inkscape:pageshadow="2"
     inkscape:pageopacity="0.0"
     inkscape:pagecheckerboard="0" /><g
     id="g8"
     inkscape:groupmode="layer"
     inkscape:label="ink_ext_XXXXXX"
     transform="matrix(1.3333333,0,0,-1.3333333,0,281.41333)"><g
       id="g10"
       transform="scale(0.1)"><path
         d="M 1914.84,107.719 H 4864.29 V 2110.56 H 1914.84 V 107.719"
         style="fill:#ffffff;fill-opacity:1;fill-rule:nonzero;stroke:none"
         id="path12" /><path
         d="m 1971.56,164.93 h 2836.02 v 1890.7 H 1971.56 V 164.93"
         style="fill:#2755ad;fill-opacity:1;fill-rule:nonzero;stroke:none"
         id="path14" /><path
         d="m 3329.14,1643.68 59.84,43.67 59.85,-43.67 -22.78,70.63 60.79,43.67 h -74.93 l -22.93,71.48 -22.93,-71.56 -74.88,0.08 60.74,-43.67 -22.77,-70.63"
         style="fill:#f0ef24;fill-opacity:1;fill-rule:nonzero;stroke:none"
         id="path16" /><path
         d="m 3019.45,1560.48 59.84,43.67 59.81,-43.67 -22.74,70.63 60.75,43.67 h -74.93 l -22.92,71.56 -22.93,-71.64 -74.89,0.08 60.74,-43.67 -22.73,-70.63"
         style="fill:#f0ef24;fill-opacity:1;fill-rule:nonzero;stroke:none"
         id="path18" /><path
         d="m 2852.69,1519.23 -22.93,-71.64 -74.88,0.08 60.74,-43.67 -22.77,-70.63 59.84,43.67 59.84,-43.67 -22.77,70.63 60.74,43.67 h -74.88 l -22.93,71.56"
         style="fill:#f0ef24;fill-opacity:1;fill-rule:nonzero;stroke:none"
         id="path20" /><path
         d="m 2769.57,1067.74 59.81,-43.67 -22.74,70.62 60.74,43.68 h -74.88 l -22.93,71.56 -22.93,-71.72 -74.92,0.16 60.78,-43.68 -22.77,-70.62 59.84,43.67"
         style="fill:#f0ef24;fill-opacity:1;fill-rule:nonzero;stroke:none"
         id="path22" /><path
         d="m 2875.62,828.141 -22.93,71.558 -22.93,-71.64 -74.88,0.082 60.74,-43.672 -22.77,-70.629 59.84,43.75 59.84,-43.75 -22.77,70.629 60.74,43.672 h -74.88"
         style="fill:#f0ef24;fill-opacity:1;fill-rule:nonzero;stroke:none"
         id="path24" /><path
         d="m 3102.65,601.109 -22.93,71.481 -22.89,-71.559 -74.92,0.078 60.74,-43.668 -22.73,-70.632 59.84,43.671 59.8,-43.671 -22.73,70.632 60.74,43.668 h -74.92"
         style="fill:#f0ef24;fill-opacity:1;fill-rule:nonzero;stroke:none"
         id="path26" /><path
         d="m 3411.95,518.84 -22.93,71.558 -22.89,-71.636 -74.92,0.078 60.74,-43.668 -22.73,-70.633 59.84,43.672 59.8,-43.672 -22.77,70.633 60.78,43.668 h -74.92"
         style="fill:#f0ef24;fill-opacity:1;fill-rule:nonzero;stroke:none"
         id="path28" /><path
         d="m 3721.25,601.109 -22.89,71.481 -22.97,-71.559 -74.84,0.078 60.7,-43.668 -22.73,-70.632 59.84,43.671 59.84,-43.671 -22.81,70.632 60.78,43.668 h -74.92"
         style="fill:#f0ef24;fill-opacity:1;fill-rule:nonzero;stroke:none"
         id="path30" /><path
         d="m 3948.36,828.141 -22.97,71.558 -22.97,-71.64 -74.84,0.082 60.78,-43.672 -22.81,-70.629 59.84,43.75 59.84,-43.75 -22.81,70.629 60.78,43.672 h -74.84"
         style="fill:#f0ef24;fill-opacity:1;fill-rule:nonzero;stroke:none"
         id="path32" /><path
         d="m 4105.47,1139.23 h -74.92 l -22.97,71.56 -22.89,-71.64 -74.92,0.08 60.78,-43.67 -22.74,-70.63 59.77,43.75 59.84,-43.75 -22.73,70.63 60.78,43.67"
         style="fill:#f0ef24;fill-opacity:1;fill-rule:nonzero;stroke:none"
         id="path34" /><path
         d="m 3865.54,1334.31 59.84,43.67 59.85,-43.67 -22.81,70.63 60.78,43.59 h -74.85 l -22.97,71.56 -22.96,-71.64 -74.85,0.08 60.78,-43.59 -22.81,-70.63"
         style="fill:#f0ef24;fill-opacity:1;fill-rule:nonzero;stroke:none"
         id="path36" /><path
         d="m 3699.22,1746.26 -22.89,-71.64 -74.92,0.16 60.7,-43.75 -22.73,-70.63 59.92,43.75 59.76,-43.75 -22.73,70.63 60.78,43.75 h -75 l -22.89,71.48"
         style="fill:#f0ef24;fill-opacity:1;fill-rule:nonzero;stroke:none"
         id="path38" /><path
         d="m 5354.58,1788.68 v 71.16 h 183.81 v -168.25 c -17.87,-17.28 -43.75,-32.51 -77.65,-45.66 -33.89,-13.15 -68.23,-19.73 -102.99,-19.73 -44.18,0 -82.68,9.26 -115.51,27.8 -32.86,18.53 -57.53,45.04 -74.05,79.51 -16.52,34.47 -24.77,71.97 -24.77,112.5 0,43.97 9.22,83.06 27.65,117.25 18.44,34.18 45.42,60.4 80.95,78.65 27.09,14.02 60.79,21.03 101.12,21.03 52.44,0 93.39,-11 122.88,-32.99 29.47,-21.99 48.43,-52.39 56.89,-91.18 l -84.7,-15.84 c -5.95,20.74 -17.14,37.11 -33.56,49.11 -16.42,12 -36.93,18.01 -61.51,18.01 -37.26,0 -66.88,-11.81 -88.87,-35.44 -21.99,-23.62 -32.99,-58.67 -32.99,-105.15 0,-50.12 11.14,-87.72 33.42,-112.78 22.28,-25.07 51.47,-37.6 87.58,-37.6 17.87,0 35.77,3.51 53.73,10.52 17.95,7.01 33.37,15.5 46.24,25.49 v 53.59 h -97.67"
         style="fill:#2755ad;fill-opacity:1;fill-rule:nonzero;stroke:none"
         id="path40" /><path
         d="m 5798.24,1812.59 c -0.57,23.43 -6.63,41.24 -18.15,53.44 -11.53,12.19 -25.54,18.29 -42.05,18.29 -17.68,0 -32.27,-6.43 -43.79,-19.3 -11.53,-12.87 -17.2,-30.34 -17,-52.43 z m -4.61,-81.82 80.67,-13.54 c -10.37,-29.58 -26.75,-52.1 -49.12,-67.55 -22.38,-15.47 -50.38,-23.2 -83.98,-23.2 -53.2,0 -92.58,17.38 -118.11,52.15 -20.17,27.85 -30.25,62.99 -30.25,105.44 0,50.7 13.24,90.41 39.75,119.13 26.5,28.7 60.02,43.06 100.54,43.06 45.52,0 81.43,-15.03 107.75,-45.09 26.31,-30.06 38.9,-76.1 37.74,-138.13 h -202.81 c 0.57,-24.01 7.1,-42.69 19.59,-56.04 12.48,-13.35 28.04,-20.02 46.66,-20.02 12.68,0 23.34,3.46 31.98,10.38 8.65,6.91 15.17,18.05 19.59,33.41"
         style="fill:#2755ad;fill-opacity:1;fill-rule:nonzero;stroke:none"
         id="path42" /><path
         d="m 6138.47,1633.4 v 305.95 h 80.95 V 1633.4 Z m 0,347.43 v 74.9 h 80.95 v -74.9 z m -227.31,-41.48 h 44.94 v 23.04 c 0,25.74 2.75,44.95 8.22,57.62 5.47,12.68 15.55,23 30.25,30.97 14.69,7.97 33.27,11.96 55.74,11.96 23.05,0 45.62,-3.46 67.71,-10.37 l -10.96,-56.47 c -12.86,3.07 -25.25,4.61 -37.16,4.61 -11.72,0 -20.11,-2.74 -25.2,-8.21 -5.1,-5.48 -7.64,-15.99 -7.64,-31.55 v -21.6 h 60.5 v -63.67 h -60.5 V 1633.4 h -80.96 v 242.28 h -44.94 v 63.67"
         style="fill:#2755ad;fill-opacity:1;fill-rule:nonzero;stroke:none"
         id="path44" /><path
         d="m 6583.27,1633.4 h -80.96 v 156.14 c 0,33.03 -1.72,54.4 -5.18,64.1 -3.46,9.7 -9.07,17.24 -16.86,22.62 -7.77,5.37 -17.14,8.06 -28.08,8.06 -14.03,0 -26.6,-3.84 -37.75,-11.52 -11.13,-7.69 -18.77,-17.86 -22.9,-30.54 -4.13,-12.67 -6.19,-36.11 -6.19,-70.29 V 1633.4 h -80.95 v 305.95 h 75.19 v -44.94 c 26.69,34.57 60.3,51.85 100.83,51.85 17.86,0 34.18,-3.22 48.97,-9.65 14.79,-6.44 25.98,-14.65 33.57,-24.63 7.58,-9.99 12.86,-21.32 15.84,-34 2.98,-12.67 4.47,-30.82 4.47,-54.44 V 1633.4"
         style="fill:#2755ad;fill-opacity:1;fill-rule:nonzero;stroke:none"
         id="path46" /><path
         d="m 6834.2,1780.32 c -10.37,-3.45 -26.8,-7.59 -49.27,-12.39 -22.47,-4.8 -37.16,-9.5 -44.07,-14.11 -10.57,-7.49 -15.85,-17 -15.85,-28.52 0,-11.34 4.22,-21.13 12.68,-29.39 8.44,-8.26 19.19,-12.38 32.26,-12.38 14.59,0 28.53,4.79 41.77,14.4 9.8,7.3 16.23,16.23 19.31,26.79 2.1,6.92 3.17,20.07 3.17,39.47 z m -108.32,65.69 -73.47,13.25 c 8.25,29.58 22.47,51.47 42.64,65.68 20.16,14.21 50.13,21.32 89.88,21.32 36.11,0 62.99,-4.28 80.67,-12.82 17.66,-8.55 30.1,-19.4 37.3,-32.55 7.21,-13.16 10.81,-37.31 10.81,-72.46 l -0.87,-94.49 c 0,-26.89 1.3,-46.72 3.89,-59.49 2.6,-12.77 7.44,-26.45 14.55,-41.05 h -80.09 c -2.12,5.37 -4.71,13.35 -7.77,23.91 -1.35,4.8 -2.31,7.97 -2.89,9.51 -13.83,-13.45 -28.62,-23.53 -44.36,-30.25 -15.75,-6.72 -32.56,-10.09 -50.42,-10.09 -31.5,0 -56.32,8.55 -74.47,25.65 -18.15,17.08 -27.22,38.69 -27.22,64.82 0,17.28 4.12,32.69 12.39,46.23 8.25,13.54 19.82,23.91 34.71,31.12 14.88,7.2 36.34,13.49 64.39,18.86 37.83,7.11 64.05,13.73 78.65,19.88 v 8.07 c 0,15.56 -3.85,26.64 -11.52,33.28 -7.69,6.62 -22.19,9.93 -43.51,9.93 -14.4,0 -25.63,-2.84 -33.7,-8.5 -8.07,-5.66 -14.6,-15.61 -19.59,-29.81"
         style="fill:#2755ad;fill-opacity:1;fill-rule:nonzero;stroke:none"
         id="path48" /><path
         d="m 7271.81,1633.4 h -80.96 v 156.14 c 0,33.03 -1.73,54.4 -5.19,64.1 -3.45,9.7 -9.07,17.24 -16.85,22.62 -7.78,5.37 -17.14,8.06 -28.09,8.06 -14.02,0 -26.6,-3.84 -37.74,-11.52 -11.13,-7.69 -18.77,-17.86 -22.9,-30.54 -4.13,-12.67 -6.19,-36.11 -6.19,-70.29 V 1633.4 h -80.95 v 305.95 h 75.18 v -44.94 c 26.69,34.57 60.31,51.85 100.83,51.85 17.87,0 34.18,-3.22 48.98,-9.65 14.78,-6.44 25.98,-14.65 33.56,-24.63 7.58,-9.99 12.86,-21.32 15.84,-34 2.98,-12.67 4.48,-30.82 4.48,-54.44 V 1633.4"
         style="fill:#2755ad;fill-opacity:1;fill-rule:nonzero;stroke:none"
         id="path50" /><path
         d="m 7620.67,1848.89 -79.8,-14.41 c -2.7,15.94 -8.79,27.95 -18.29,36.01 -9.51,8.07 -21.86,12.1 -37.02,12.1 -20.17,0 -36.25,-6.96 -48.26,-20.88 -12.01,-13.93 -18,-37.22 -18,-69.86 0,-36.3 6.09,-61.94 18.29,-76.92 12.19,-14.98 28.56,-22.47 49.12,-22.47 15.36,0 27.95,4.36 37.73,13.11 9.81,8.73 16.72,23.76 20.74,45.08 l 79.52,-13.54 c -8.26,-36.49 -24.1,-64.05 -47.53,-82.68 -23.44,-18.63 -54.84,-27.95 -94.21,-27.95 -44.75,0 -80.42,14.12 -107.02,42.36 -26.6,28.23 -39.9,67.31 -39.9,117.25 0,50.5 13.34,89.83 40.04,117.96 26.69,28.14 62.81,42.21 108.32,42.21 37.26,0 66.89,-8.02 88.88,-24.05 21.98,-16.04 37.78,-40.48 47.39,-73.32"
         style="fill:#2755ad;fill-opacity:1;fill-rule:nonzero;stroke:none"
         id="path52" /><path
         d="m 7682.02,1633.4 v 305.95 h 80.96 V 1633.4 Z m 0,347.43 v 74.9 h 80.96 v -74.9 h -80.96"
         style="fill:#2755ad;fill-opacity:1;fill-rule:nonzero;stroke:none"
         id="path54" /><path
         d="m 8027.73,1812.59 c -0.57,23.43 -6.63,41.24 -18.15,53.44 -11.52,12.19 -25.54,18.29 -42.05,18.29 -17.68,0 -32.27,-6.43 -43.79,-19.3 -11.52,-12.87 -17.2,-30.34 -17,-52.43 z m -4.61,-81.82 80.67,-13.54 c -10.37,-29.58 -26.75,-52.1 -49.12,-67.55 -22.38,-15.47 -50.37,-23.2 -83.98,-23.2 -53.2,0 -92.58,17.38 -118.11,52.15 -20.17,27.85 -30.25,62.99 -30.25,105.44 0,50.7 13.25,90.41 39.75,119.13 26.5,28.7 60.02,43.06 100.55,43.06 45.51,0 81.42,-15.03 107.74,-45.09 26.31,-30.06 38.9,-76.1 37.74,-138.13 H 7905.3 c 0.57,-24.01 7.1,-42.69 19.59,-56.04 12.48,-13.35 28.04,-20.02 46.66,-20.02 12.68,0 23.34,3.46 31.98,10.38 8.65,6.91 15.17,18.05 19.59,33.41"
         style="fill:#2755ad;fill-opacity:1;fill-rule:nonzero;stroke:none"
         id="path56" /><path
         d="m 8251.57,1633.4 h -80.96 v 305.95 h 75.2 v -43.5 c 12.86,20.54 24.43,34.08 34.72,40.61 10.27,6.53 21.93,9.8 35,9.8 18.43,0 36.2,-5.09 53.29,-15.27 l -25.06,-70.58 c -13.64,8.83 -26.32,13.25 -38.03,13.25 -11.34,0 -20.94,-3.12 -28.81,-9.36 -7.88,-6.24 -14.07,-17.53 -18.58,-33.85 -4.51,-16.33 -6.77,-50.51 -6.77,-102.56 v -94.49"
         style="fill:#2755ad;fill-opacity:1;fill-rule:nonzero;stroke:none"
         id="path58" /><path
         d="m 8468.21,1793 c 0,-32.65 4.51,-56.27 13.55,-70.87 13.05,-21.13 31.3,-31.69 54.73,-31.69 18.63,0 34.48,7.92 47.54,23.77 13.06,15.84 19.59,39.51 19.59,71.01 0,35.15 -6.35,60.45 -19.02,75.91 -12.68,15.46 -28.91,23.19 -48.68,23.19 -19.21,0 -35.3,-7.63 -48.25,-22.9 -12.97,-15.27 -19.46,-38.08 -19.46,-68.42 z m 216.08,-159.6 h -75.2 v 44.94 c -12.49,-17.48 -27.23,-30.49 -44.22,-39.03 -17,-8.55 -34.14,-12.83 -51.42,-12.83 -35.15,0 -65.26,14.16 -90.32,42.5 -25.06,28.32 -37.59,67.84 -37.59,118.54 0,51.86 12.19,91.28 36.58,118.26 24.39,26.99 55.21,40.48 92.48,40.48 34.18,0 63.76,-14.21 88.73,-42.63 v 152.1 h 80.96 V 1633.4"
         style="fill:#2755ad;fill-opacity:1;fill-rule:nonzero;stroke:none"
         id="path60" /><path
         d="m 8992.53,1793 c 0,-32.65 4.51,-56.27 13.54,-70.87 13.06,-21.13 31.3,-31.69 54.74,-31.69 18.62,0 34.47,7.92 47.54,23.77 13.06,15.84 19.59,39.51 19.59,71.01 0,35.15 -6.35,60.45 -19.02,75.91 -12.68,15.46 -28.91,23.19 -48.69,23.19 -19.21,0 -35.29,-7.63 -48.25,-22.9 -12.97,-15.27 -19.45,-38.08 -19.45,-68.42 z m 216.07,-159.6 h -75.19 v 44.94 c -12.49,-17.48 -27.23,-30.49 -44.22,-39.03 -17,-8.55 -34.14,-12.83 -51.43,-12.83 -35.14,0 -65.25,14.16 -90.31,42.5 -25.07,28.32 -37.6,67.84 -37.6,118.54 0,51.86 12.2,91.28 36.58,118.26 24.4,26.99 55.22,40.48 92.49,40.48 34.18,0 63.76,-14.21 88.73,-42.63 v 152.1 h 80.95 V 1633.4"
         style="fill:#2755ad;fill-opacity:1;fill-rule:nonzero;stroke:none"
         id="path62" /><path
         d="m 9352.64,1786.38 c 0,-30.35 7.19,-53.59 21.61,-69.72 14.39,-16.14 32.16,-24.2 53.29,-24.2 21.12,0 38.84,8.06 53.15,24.2 14.31,16.13 21.47,39.56 21.47,70.29 0,29.96 -7.16,53.01 -21.47,69.14 -14.31,16.13 -32.03,24.2 -53.15,24.2 -21.13,0 -38.9,-8.07 -53.29,-24.2 -14.42,-16.13 -21.61,-39.38 -21.61,-69.71 z m -82.97,4.32 c 0,26.88 6.63,52.91 19.87,78.07 13.26,25.15 32.03,44.36 56.33,57.61 24.29,13.26 51.42,19.88 81.39,19.88 46.27,0 84.2,-15.03 113.78,-45.09 29.57,-30.06 44.37,-68.03 44.37,-113.93 0,-46.29 -14.93,-84.65 -44.8,-115.09 -29.87,-30.44 -67.46,-45.67 -112.79,-45.67 -28.04,0 -54.78,6.34 -80.22,19.02 -25.45,12.68 -44.8,31.26 -58.06,55.74 -13.24,24.49 -19.87,54.31 -19.87,89.46"
         style="fill:#2755ad;fill-opacity:1;fill-rule:nonzero;stroke:none"
         id="path64" /><path
         d="m 9713.04,1786.38 c 0,-30.35 7.19,-53.59 21.61,-69.72 14.39,-16.14 32.16,-24.2 53.29,-24.2 21.12,0 38.84,8.06 53.15,24.2 14.31,16.13 21.47,39.56 21.47,70.29 0,29.96 -7.16,53.01 -21.47,69.14 -14.31,16.13 -32.03,24.2 -53.15,24.2 -21.13,0 -38.9,-8.07 -53.29,-24.2 -14.42,-16.13 -21.61,-39.38 -21.61,-69.71 z m -82.97,4.32 c 0,26.88 6.63,52.91 19.87,78.07 13.26,25.15 32.03,44.36 56.33,57.61 24.29,13.26 51.42,19.88 81.39,19.88 46.27,0 84.2,-15.03 113.78,-45.09 29.58,-30.06 44.37,-68.03 44.37,-113.93 0,-46.29 -14.93,-84.65 -44.79,-115.09 -29.88,-30.44 -67.47,-45.67 -112.8,-45.67 -28.04,0 -54.78,6.34 -80.22,19.02 -25.45,12.68 -44.8,31.26 -58.06,55.74 -13.24,24.49 -19.87,54.31 -19.87,89.46"
         style="fill:#2755ad;fill-opacity:1;fill-rule:nonzero;stroke:none"
         id="path66" /><path
         d="m 10086.7,1633.4 h -81 v 305.95 h 75.2 v -43.5 c 12.9,20.54 24.5,34.08 34.7,40.61 10.3,6.53 22,9.8 35,9.8 18.5,0 36.2,-5.09 53.3,-15.27 l -25,-70.58 c -13.7,8.83 -26.3,13.25 -38.1,13.25 -11.3,0 -20.9,-3.12 -28.8,-9.36 -7.8,-6.24 -14,-17.53 -18.5,-33.85 -4.6,-16.33 -6.8,-50.51 -6.8,-102.56 v -94.49"
         style="fill:#2755ad;fill-opacity:1;fill-rule:nonzero;stroke:none"
         id="path68" /><path
         d="m 5222.06,1085 c 0,-32.65 4.51,-56.27 13.55,-70.87 13.05,-21.118 31.29,-31.689 54.73,-31.689 18.62,0 34.47,7.918 47.54,23.769 13.06,15.84 19.59,39.51 19.59,71.01 0,35.15 -6.35,60.45 -19.02,75.92 -12.68,15.45 -28.91,23.18 -48.68,23.18 -19.21,0 -35.3,-7.63 -48.26,-22.9 -12.97,-15.26 -19.45,-38.08 -19.45,-68.42 z m 216.07,-159.602 h -75.19 v 44.942 c -12.49,-17.481 -27.23,-30.488 -44.22,-39.031 -17,-8.547 -34.14,-12.821 -51.43,-12.821 -35.14,0 -65.25,14.16 -90.31,42.492 -25.07,28.329 -37.6,67.85 -37.6,118.55 0,51.85 12.2,91.27 36.59,118.26 24.39,26.98 55.21,40.47 92.48,40.47 34.18,0 63.76,-14.21 88.73,-42.63 v 152.1 h 80.95 V 925.398"
         style="fill:#2755ad;fill-opacity:1;fill-rule:nonzero;stroke:none"
         id="path70" /><path
         d="m 5699.71,1104.59 c -0.58,23.43 -6.63,41.24 -18.16,53.44 -11.52,12.2 -25.53,18.29 -42.05,18.29 -17.67,0 -32.26,-6.43 -43.79,-19.3 -11.52,-12.87 -17.19,-30.34 -17,-52.43 z m -4.61,-81.82 80.66,-13.53 c -10.37,-29.58 -26.75,-52.099 -49.12,-67.56 -22.37,-15.461 -50.37,-23.192 -83.97,-23.192 -53.21,0 -92.58,17.383 -118.12,52.153 -20.17,27.839 -30.24,62.979 -30.24,105.429 0,50.7 13.24,90.41 39.74,119.13 26.51,28.7 60.02,43.06 100.55,43.06 45.52,0 81.43,-15.03 107.74,-45.08 26.31,-30.06 38.9,-76.11 37.75,-138.14 h -202.81 c 0.56,-24 7.1,-42.69 19.59,-56.04 12.48,-13.34 28.03,-20.012 46.66,-20.012 12.67,0 23.34,3.453 31.98,10.371 8.64,6.911 15.16,18.051 19.59,33.411"
         style="fill:#2755ad;fill-opacity:1;fill-rule:nonzero;stroke:none"
         id="path72" /><path
         d="m 6010.56,925.398 v 422.332 h 313.14 v -71.44 h -227.87 v -93.63 h 212.03 V 1111.5 H 6095.83 V 996.559 h 235.94 v -71.161 h -321.21"
         style="fill:#2755ad;fill-opacity:1;fill-rule:nonzero;stroke:none"
         id="path74" /><path
         d="m 6604.88,925.398 v 45.813 c -11.14,-16.332 -25.78,-29.199 -43.93,-38.602 -18.15,-9.418 -37.31,-14.121 -57.47,-14.121 -20.56,0 -39,4.524 -55.32,13.543 -16.32,9.028 -28.13,21.699 -35.44,38.028 -7.29,16.32 -10.93,38.891 -10.93,67.691 v 193.6 h 80.94 v -140.59 c 0,-43.01 1.49,-69.38 4.47,-79.08 2.98,-9.7 8.4,-17.379 16.28,-23.051 7.87,-5.66 17.86,-8.488 29.96,-8.488 13.83,0 26.22,3.789 37.16,11.371 10.95,7.59 18.43,17.008 22.48,28.238 4.02,11.24 6.04,38.75 6.04,82.54 v 129.06 h 80.95 V 925.398 h -75.19"
         style="fill:#2755ad;fill-opacity:1;fill-rule:nonzero;stroke:none"
         id="path76" /><path
         d="m 6841.4,925.398 h -80.96 v 305.952 h 75.19 v -43.5 c 12.87,20.54 24.44,34.08 34.72,40.62 10.28,6.53 21.94,9.79 35,9.79 18.44,0 36.2,-5.09 53.29,-15.26 l -25.06,-70.59 c -13.64,8.84 -26.31,13.25 -38.02,13.25 -11.34,0 -20.94,-3.12 -28.81,-9.36 -7.88,-6.24 -14.07,-17.53 -18.59,-33.85 -4.51,-16.33 -6.76,-50.51 -6.76,-102.56 v -94.492"
         style="fill:#2755ad;fill-opacity:1;fill-rule:nonzero;stroke:none"
         id="path78" /><path
         d="m 7057.75,1078.37 c 0,-30.34 7.2,-53.57 21.61,-69.71 14.4,-16.129 32.16,-24.199 53.3,-24.199 21.12,0 38.83,8.07 53.15,24.199 14.31,16.14 21.46,39.56 21.46,70.29 0,29.96 -7.15,53.01 -21.46,69.14 -14.32,16.14 -32.03,24.2 -53.15,24.2 -21.14,0 -38.9,-8.06 -53.3,-24.2 -14.41,-16.13 -21.61,-39.37 -21.61,-69.72 z m -82.96,4.33 c 0,26.88 6.63,52.91 19.87,78.07 13.26,25.16 32.03,44.36 56.33,57.62 24.28,13.25 51.42,19.87 81.38,19.87 46.28,0 84.21,-15.03 113.79,-45.08 29.57,-30.06 44.37,-68.04 44.37,-113.94 0,-46.29 -14.93,-84.65 -44.8,-115.092 -29.87,-30.437 -67.46,-45.66 -112.79,-45.66 -28.04,0 -54.79,6.344 -80.23,19.012 -25.44,12.68 -44.79,31.262 -58.05,55.738 -13.24,24.502 -19.87,54.312 -19.87,89.462"
         style="fill:#2755ad;fill-opacity:1;fill-rule:nonzero;stroke:none"
         id="path80" /><path
         d="m 7431.69,1083.56 c 0,-34.38 6.81,-59.78 20.45,-76.2 13.63,-16.419 30.25,-24.622 49.84,-24.622 18.82,0 34.46,7.524 46.95,22.602 12.49,15.08 18.74,39.81 18.74,74.19 0,32.07 -6.45,55.89 -19.31,71.44 -12.87,15.56 -28.81,23.34 -47.82,23.34 -19.79,0 -36.2,-7.64 -49.26,-22.9 -13.07,-15.28 -19.59,-37.89 -19.59,-67.85 z m -80.1,147.79 h 75.49 v -44.94 c 9.78,15.36 23.05,27.84 39.75,37.45 16.71,9.6 35.24,14.4 55.6,14.4 35.53,0 65.68,-13.92 90.46,-41.77 24.78,-27.85 37.16,-66.65 37.16,-116.39 0,-51.09 -12.48,-90.791 -37.44,-119.12 -24.97,-28.332 -55.23,-42.492 -90.76,-42.492 -16.9,0 -32.21,3.371 -45.94,10.094 -13.74,6.707 -28.2,18.238 -43.36,34.566 V 809.012 h -80.96 v 422.338"
         style="fill:#2755ad;fill-opacity:1;fill-rule:nonzero;stroke:none"
         id="path82" /><path
         d="m 7896.07,1104.59 c -0.57,23.43 -6.63,41.24 -18.15,53.44 -11.52,12.2 -25.54,18.29 -42.05,18.29 -17.68,0 -32.27,-6.43 -43.79,-19.3 -11.52,-12.87 -17.2,-30.34 -17,-52.43 z m -4.61,-81.82 80.67,-13.53 c -10.37,-29.58 -26.75,-52.099 -49.12,-67.56 -22.38,-15.461 -50.37,-23.192 -83.98,-23.192 -53.2,0 -92.58,17.383 -118.11,52.153 -20.17,27.839 -30.25,62.979 -30.25,105.429 0,50.7 13.25,90.41 39.75,119.13 26.5,28.7 60.02,43.06 100.55,43.06 45.51,0 81.42,-15.03 107.74,-45.08 26.31,-30.06 38.9,-76.11 37.74,-138.14 h -202.81 c 0.57,-24 7.1,-42.69 19.59,-56.04 12.48,-13.34 28.04,-20.012 46.66,-20.012 12.68,0 23.34,3.453 31.98,10.371 8.65,6.911 15.17,18.051 19.59,33.411"
         style="fill:#2755ad;fill-opacity:1;fill-rule:nonzero;stroke:none"
         id="path84" /><path
         d="m 8013.91,1012.7 81.24,12.38 c 3.45,-15.75 10.46,-27.709 21.02,-35.869 10.57,-8.16 25.35,-12.242 44.38,-12.242 20.92,0 36.68,3.84 47.24,11.531 7.1,5.371 10.66,12.58 10.66,21.6 0,6.14 -1.93,11.24 -5.77,15.27 -4.03,3.84 -13.06,7.39 -27.08,10.66 -65.3,14.4 -106.68,27.55 -124.16,39.46 -24.19,16.52 -36.3,39.47 -36.3,68.86 0,26.5 10.46,48.78 31.4,66.83 20.93,18.05 53.39,27.08 97.38,27.08 41.86,0 72.97,-6.82 93.34,-20.45 20.35,-13.64 34.37,-33.81 42.06,-60.5 l -76.35,-14.11 c -3.26,11.9 -9.45,21.03 -18.58,27.36 -9.13,6.34 -22.13,9.51 -39.04,9.51 -21.31,0 -36.58,-2.98 -45.8,-8.93 -6.15,-4.23 -9.22,-9.7 -9.22,-16.42 0,-5.76 2.69,-10.66 8.07,-14.7 7.29,-5.38 32.5,-12.96 75.62,-22.75 43.12,-9.8 73.22,-21.81 90.32,-36.01 16.89,-14.4 25.35,-34.48 25.35,-60.21 0,-28.038 -11.72,-52.14 -35.15,-72.312 -23.44,-20.156 -58.1,-30.25 -103.99,-30.25 -41.68,0 -74.67,8.442 -98.97,25.352 -24.3,16.898 -40.18,39.851 -47.67,68.86"
         style="fill:#2755ad;fill-opacity:1;fill-rule:nonzero;stroke:none"
         id="path86" /><path
         d="m 8552.34,1104.59 c -0.57,23.43 -6.63,41.24 -18.15,53.44 -11.52,12.2 -25.54,18.29 -42.05,18.29 -17.68,0 -32.27,-6.43 -43.79,-19.3 -11.52,-12.87 -17.2,-30.34 -17,-52.43 z m -4.61,-81.82 80.67,-13.53 c -10.37,-29.58 -26.75,-52.099 -49.12,-67.56 -22.38,-15.461 -50.37,-23.192 -83.98,-23.192 -53.2,0 -92.58,17.383 -118.11,52.153 -20.17,27.839 -30.25,62.979 -30.25,105.429 0,50.7 13.24,90.41 39.75,119.13 26.5,28.7 60.02,43.06 100.55,43.06 45.51,0 81.42,-15.03 107.74,-45.08 26.31,-30.06 38.9,-76.11 37.74,-138.14 h -202.81 c 0.57,-24 7.1,-42.69 19.59,-56.04 12.48,-13.34 28.04,-20.012 46.66,-20.012 12.68,0 23.34,3.453 31.98,10.371 8.65,6.911 15.17,18.051 19.59,33.411"
         style="fill:#2755ad;fill-opacity:1;fill-rule:nonzero;stroke:none"
         id="path88" /><path
         d="m 8862.61,1347.73 h 85.27 V 1119 c 0,-36.3 1.05,-59.83 3.17,-70.58 3.65,-17.29 12.34,-31.16 26.08,-41.63 13.73,-10.47 32.5,-15.708 56.32,-15.708 24.2,0 42.44,4.949 54.73,14.838 12.29,9.89 19.69,22.04 22.18,36.44 2.5,14.41 3.75,38.32 3.75,71.74 v 233.63 h 85.27 v -221.82 c 0,-50.7 -2.3,-86.52 -6.91,-107.45 -4.61,-20.94 -13.11,-38.608 -25.5,-53.011 -12.38,-14.398 -28.95,-25.89 -49.7,-34.429 -20.74,-8.54 -47.81,-12.821 -81.23,-12.821 -40.33,0 -70.92,4.66 -91.75,13.973 -20.84,9.316 -37.31,21.41 -49.42,36.297 -12.09,14.883 -20.07,30.492 -23.9,46.811 -5.58,24.2 -8.36,59.93 -8.36,107.17 v 225.28"
         style="fill:#2755ad;fill-opacity:1;fill-rule:nonzero;stroke:none"
         id="path90" /><path
         d="m 9566.98,925.398 h -80.96 v 156.142 c 0,33.04 -1.72,54.4 -5.18,64.1 -3.46,9.7 -9.07,17.24 -16.86,22.62 -7.77,5.37 -17.13,8.06 -28.08,8.06 -14.03,0 -26.6,-3.84 -37.75,-11.52 -11.13,-7.69 -18.77,-17.86 -22.9,-30.53 -4.13,-12.68 -6.19,-36.11 -6.19,-70.29 V 925.398 h -80.95 v 305.952 h 75.19 v -44.94 c 26.69,34.57 60.3,51.85 100.83,51.85 17.86,0 34.18,-3.21 48.97,-9.65 14.79,-6.43 25.98,-14.65 33.57,-24.63 7.58,-9.99 12.86,-21.32 15.84,-34 2.98,-12.67 4.47,-30.82 4.47,-54.44 V 925.398"
         style="fill:#2755ad;fill-opacity:1;fill-rule:nonzero;stroke:none"
         id="path92" /><path
         d="m 9649.07,925.398 v 305.952 h 80.96 V 925.398 Z m 0,347.432 v 74.9 h 80.96 v -74.9 h -80.96"
         style="fill:#2755ad;fill-opacity:1;fill-rule:nonzero;stroke:none"
         id="path94" /><path
         d="m 9994.78,1104.59 c -0.57,23.43 -6.63,41.24 -18.15,53.44 -11.52,12.2 -25.54,18.29 -42.05,18.29 -17.68,0 -32.27,-6.43 -43.79,-19.3 -11.52,-12.87 -17.2,-30.34 -17,-52.43 z m -4.6,-81.82 80.62,-13.53 c -10.3,-29.58 -26.7,-52.099 -49.1,-67.56 -22.35,-15.461 -50.35,-23.192 -83.96,-23.192 -53.2,0 -92.57,17.383 -118.11,52.153 -20.17,27.839 -30.25,62.979 -30.25,105.429 0,50.7 13.25,90.41 39.75,119.13 26.5,28.7 60.02,43.06 100.55,43.06 45.51,0 81.42,-15.03 107.72,-45.08 26.3,-30.06 38.9,-76.11 37.8,-138.14 h -202.85 c 0.57,-24 7.1,-42.69 19.59,-56.04 12.48,-13.34 28.04,-20.012 46.66,-20.012 12.68,0 23.34,3.453 31.99,10.371 8.64,6.911 15.16,18.051 19.59,33.411"
         style="fill:#2755ad;fill-opacity:1;fill-rule:nonzero;stroke:none"
         id="path96" /><g
         id="g98"
         transform="scale(10)"><text
           transform="matrix(1,0,0,-1,511.937,16.5602)"
           style="font-variant:normal;font-weight:normal;font-size:51px;font-family:Arial;-inkscape-font-specification:ArialMT;writing-mode:lr-tb;fill:#4a4d51;fill-opacity:1;fill-rule:nonzero;stroke:none"
           id="text102"><tspan
             x="0 36.831081 65.194359 90.694359 104.8643 144.53322 172.89752 201.26079 229.62411 246.60849 274.97177 289.14169 300.47177 328.83508 357.19949 391.21649"
             y="0"
             sodipodi:role="line"
             id="tspan100">NextGenerationEU</tspan></text></g><path
         d="m 1187.82,1084.11 c -65.65,50.13 -96.33,-0.38 -137.64,2.98 -34.91,2.74 -67.641,59.2 -94.727,45.7 -51.535,-26.17 20.719,-119.03 52.077,-138.028 27.96,-16.633 63.13,-32.121 71.56,-36.09 41.47,-19.301 57.99,-48.684 63.18,-94.383 1.33,-10.598 0,-34.641 -2.6,-45.699 -18.91,-80.34 -159.607,-153.281 -240.412,-98.121 -37.992,26.101 -72.707,59.82 -84.766,119.41 -21.742,105.519 -97.926,183.111 -122.34,286.351 -14.843,62.75 -25.867,129.01 -42.234,192.11 -16.707,65.24 -33.797,129.9 -47.453,189.22 -12.442,55.13 -38.688,137.57 -57.606,187.69 -77.214,201.47 -112.086,186.86 -112.086,186.86 0,0 28.082,-55.97 130.321,-549.73 4.195,-20.22 41.312,-237.74 68.437,-309.39 9.692,-25.631 26.629,-80.42 37.766,-104.599 32.504,-70.801 118.34,-178 123.984,-274.75 3.282,-55.852 9.614,-102.09 10.989,-144.43 0.761,-12.359 6.253,-62.789 14.343,-85.231 C 839.52,355.082 1008.75,164.801 1188.28,164.801 V 309 c -178.42,0 -346.546,100.02 -350.706,110.559 -2.554,4.652 9.27,72.929 21.364,103.222 23.421,58.828 67.484,112.391 145.002,118.188 86.45,6.179 138.63,-18.918 184.34,-18.918 l -0.46,462.059"
         style="fill:#2755ad;fill-opacity:1;fill-rule:nonzero;stroke:none"
         id="path104" /><path
         d="m 412.898,1607.44 c -6.523,-107.92 -173.613,-255.6 -226.031,-350.21 -25.633,-46.69 -56.996,-126.5 -65.082,-172.93 -22.203,-128.749 5.988,-208.788 37.387,-284.171 55.312,-132.609 -7.481,-181.289 35.781,-154.43 53.488,43.641 45.399,145.352 41.434,208.832 -3.129,51.5 -6.567,110.098 1.218,171.519 14.879,114.9 84.426,238.24 143.825,324.49 70.574,102.85 44.937,209.21 31.468,256.9"
         style="fill:#2755ad;fill-opacity:1;fill-rule:nonzero;stroke:none"
         id="path106" /><path
         d="m 446.586,1300.72 c 0,0 17.777,-85.53 -57.68,-305.501 C 191.52,420.09 568.547,365.531 675.898,230.262 c 0,0 41.543,58.519 -129.437,246.129 -62.453,68.449 -118.797,219.589 -69.738,435.211 70.996,312.288 -30.137,389.118 -30.137,389.118"
         style="fill:#2755ad;fill-opacity:1;fill-rule:nonzero;stroke:none"
         id="path108" /><path
         d="m 73.3359,1677.97 c -9.0039,33.99 -11.75,64.4 -9.7656,91.56 9.0781,135.16 131.8787,189.83 162.4417,210.01 0,0 55.234,37.8 62.332,75.96 0,0 56.535,-142.26 -73.094,-223.75 -65.77,-41.43 -110.48,-89.91 -141.9141,-153.78"
         style="fill:#2755ad;fill-opacity:1;fill-rule:nonzero;stroke:none"
         id="path110" /><path
         d="m 382.949,1808.67 c 6.985,-13.7 57.836,-88.24 -150.535,-260.17 C 24.4297,1376.71 89.3984,1253.95 89.3984,1253.95 c 0,0 -222.0274,123.45 33.7226,336.78 255.676,213.25 203.219,256.43 203.219,256.43 0,0 36.66,1.84 56.609,-38.49"
         style="fill:#2755ad;fill-opacity:1;fill-rule:nonzero;stroke:none"
         id="path112" /><path
         d="m 765.59,1692.28 c 3.012,8.05 7.359,1.52 16.476,7.25 9.731,9.23 19.684,24.3 35.516,29.37 11.336,3.51 26.859,1.83 37.426,-2.29 7.058,-1.71 2.824,-19.84 -2.516,-24.53 -11.215,-8.35 -44.484,5.38 -44.484,-19.57 1.375,-40.82 55.277,1.38 83.394,0.15 13.774,-99.71 -150.347,-72.32 -125.812,9.62 z m -112.16,50.51 c 36.011,-4.73 58.902,-116.97 142.179,-141.42 61.231,-17.82 126.313,-8.12 140.735,-44.98 -28.078,-14.87 -5.875,-64.32 22.351,-56.23 23.274,65.58 35.024,319.2 -305.265,242.63"
         style="fill:#2755ad;fill-opacity:1;fill-rule:nonzero;stroke:none"
         id="path114" /></g></g></svg>
